<svg viewBox="0 0 1080 1080" fill="none" xmlns="http://www.w3.org/2000/svg">        <defs>    <filter id="filter" x="-20%" y="-20%" width="140%" height="140%" filterUnits="objectBoundingBox" primitiveUnits="userSpaceOnUse" color-interpolation-filters="linearRGB">      <feMorphology operator="dilate" radius="20 20" in="SourceAlpha" result="morphology"/>      <feFlood flood-color="#ffffff" flood-opacity="1" result="flood"/>      <feComposite in="flood" in2="morphology" operator="in" result="composite"/>      <feMerge result="merge">            <feMergeNode in="composite" result="mergeNode"/>        <feMergeNode in="SourceGraphic" result="mergeNode1"/>        </feMerge>    </filter>  </defs>        <g id="notion-avatar" filter="url(#filter)">          <g id="notion-avatar-face" fill="#ffffff">            <title>Face/ 9</title>    <g id="Face/-9" stroke="none" stroke-width="1" fill-rule="evenodd" stroke-linecap="round" stroke-linejoin="round">        <path d="M532,379 C664.54834,379 772,486.45166 772,619 C772,751.54834 704.54834,919 592,919 C506.683174,919 378.324367,822.776611 321.205121,718.475443 C318.188736,718.821948 315.115161,719 312,719 C267.81722,719 232,683.18278 232,639 C232,599.134956 261.158843,566.080325 299.312086,560.00055 C325.599297,455.979213 419.809919,379 532,379 Z M295.858895,624.545187 L304.141105,655.454813" id="Path" stroke="#000000" stroke-width="24"/>    </g>      </g><g id="notion-avatar-nose">            <title>Nose/ 8</title>    <g id="Nose/-8" stroke="none" stroke-width="1" fill="none" fill-rule="evenodd" stroke-linecap="round" stroke-linejoin="round">        <path d="M649,600 C682.333333,613.333333 699,630 699,650 C699,670 682.333333,680 649,680" id="Path" stroke="#000000" stroke-width="16"/>    </g>      </g><g id="notion-avatar-mouth">            <title>Mouth/ 1</title>    <g id="Mouth/-1" stroke="none" stroke-width="1" fill="none" fill-rule="evenodd" stroke-linecap="round" stroke-linejoin="round">        <path d="M549,759 C575.12979,773.666667 603.12979,781 633,781 C662.87021,781 682.87021,773.666667 693,759" id="Path" stroke="#000000" stroke-width="16"/>    </g>      </g><g id="notion-avatar-eyes">        <g id="Eyes/ 11"><g id="Group 3"><path id="Path" d="M660 536.5C660 536.5 668.471 533 679.765 533C691.059 533 702.811 538 723.059 538C743.306 538 756 533 756 533" stroke="black" stroke-width="12" stroke-linecap="round" stroke-linejoin="round"/><path id="Path_2" d="M618 536.5C618 536.5 609.529 533 598.235 533C586.941 533 575.189 538 554.941 538C534.694 538 522 533 522 533" stroke="black" stroke-width="12" stroke-linecap="round" stroke-linejoin="round"/></g></g>      </g><g id="notion-avatar-eyebrows">            <title>Eyebrows/ 8</title>    <g id="Eyebrows/-8" stroke="none" stroke-width="1" fill="none" fill-rule="evenodd" stroke-linecap="round" stroke-linejoin="round">        <g id="Group" transform="translate(530.000000, 490.000000)" stroke="#000000" stroke-width="16">            <path d="M64,10 C59.1947065,3.33333333 51.1947065,0 40,0 C28.8052935,0 15.4719602,3.33333333 0,10" id="Path"/>            <path d="M218,10 C213.194706,3.33333333 205.194706,0 194,0 C182.805294,0 169.47196,3.33333333 154,10" id="Path" transform="translate(186.000000, 5.000000) scale(-1, 1) translate(-186.000000, -5.000000) "/>        </g>    </g>      </g><g id="notion-avatar-glasses">            <title>Glasses/ 5</title>    <g id="Glasses/-5" stroke="none" stroke-width="1" fill="none" fill-rule="evenodd" stroke-linecap="round" stroke-linejoin="round">        <g id="Group" transform="translate(289.000000, 500.000000)" stroke="#000000">            <path d="M339.818182,40.2109589 C338.074175,42.9080712 336.862054,47.8943725 336.181818,55.169863 L327.454545,55.169863 C324.545455,28.1013699 305.393939,14.0922374 270,13.1424658 C240.424242,11.2429224 222.727273,23.1150685 216.909091,48.7589041 L205.272727,48.7589041 L190,33.8 L190,10.2931507 C222.484848,2.22009132 249.151515,-1.10410959 270,0.320547945 C285.225486,1.36096427 303.25963,5.13798521 324.62746,9.93254373 L332.545455,11.7178082 C336.214681,12.54746 342.032863,13.4972317 350,14.5671233 L352.073632,14.2846662 C358.984501,13.3293325 364.111473,12.4737132 367.454545,11.7178082 L376.341511,9.71531602 C397.286215,5.02415827 415.005203,1.34520038 430,0.320547945 C450.64,-1.08986301 476.9824,2.15408219 509.0272,10.0523836 L510,10.2931507 L510,33.8 L494.727273,48.7589041 L483.090909,48.7589041 C477.272727,23.1150685 459.575758,11.2429224 430,13.1424658 C394.96,14.0827397 375.8392,27.8224932 372.6376,54.361726 L372.545455,55.169863 L363.818182,55.169863 L363.730382,54.2723496 C363.036013,47.4828217 361.853158,42.7956915 360.181818,40.2109589 C358.482529,37.5830034 355.216835,35.4868176 350.384736,33.9224017 L350,33.8 C344.956128,35.3768603 341.562189,37.5138466 339.818182,40.2109589 Z" id="Path" stroke-width="4" fill="#000000"/>            <path d="M216.909091,48.4383562 C216.909091,85.4794521 234.606061,104 270,104 C305.393939,104 324.545455,87.6164384 327.454545,54.8493151" id="Path" stroke-width="6"/>            <path d="M372.545455,48.4383562 C372.545455,85.4794521 390.242424,104 425.636364,104 C461.030303,104 480.181818,87.6164384 483.090909,54.8493151" id="Path" stroke-width="6" transform="translate(427.818182, 76.219178) scale(-1, 1) translate(-427.818182, -76.219178) "/>            <polygon id="Path" stroke-width="4" fill="#000000" points="199 9 4 41 0 50 199 30"/>        </g>    </g>      </g><g id="notion-avatar-hair">            <title>Hairstyle/ 3</title>    <g id="Hairstyle/-3" stroke="none" stroke-width="1" fill="none" fill-rule="evenodd" stroke-linecap="round" stroke-linejoin="round">        <path d="M468,155 C494.413508,155 517.505024,169.223139 530.033478,190.428348 C542.638883,179.566707 559.052573,173 577,173 C607.278861,173 633.192307,191.690562 643.83239,218.163736 C650.523576,216.106563 657.632562,215 665,215 C699.786693,215 728.811394,239.670025 735.533019,272.468992 C768.002006,279.12141 793,314 793,343 C793,372 789.333333,379 782,405 C774.666667,431 761.666667,458.333333 743,487 L742.487847,486.071181 C738.468171,478.85706 732.305556,469.5 724,458 C719.654204,451.982745 713.183929,446.346749 708,441 C703.288148,442.688186 700.961321,443.835284 697.999909,444.579207 C634.162314,458.31332 585.060234,463.786515 550.69367,460.998791 L543.474261,460.399732 L540.29429,460.150618 C513.724479,458.137897 460.670673,455.9739 427,477 C388.41902,501.092406 375.286815,555.63188 372.093734,571.530134 L371.83052,572.876479 L371.66972,573.747986 C369.058511,588.2233 367.192111,614.492798 366.07052,652.556479 L366,655 L328.116663,564.824988 L287.145773,564.824988 L287.123625,564.742696 C285.105011,564.913266 283.062634,565 281,565 C241.235498,565 209,532.764502 209,493 C209,462.831845 227.554139,436.997241 253.873676,426.284928 C238.060403,413.079216 228,393.214474 228,371 C228,331.235498 260.235498,299 300,299 C301.933893,299 303.849978,299.076244 305.745413,299.225891 C302.046294,290.559511 300,281.018724 300,271 C300,231.235498 332.235498,199 372,199 C381.775632,199 391.096237,200.948197 399.594739,204.477513 C409.046897,175.744373 436.100894,155 468,155 Z" id="Path" stroke="#000000" stroke-width="12" fill="#000000"/>    </g>      </g><g id="notion-avatar-accessories">            <title>Accessories/ 0</title>    <g id="Accessories/-0" stroke="none" stroke-width="1" fill="none" fill-rule="evenodd"/>      </g><g id="notion-avatar-details">            <title>Details/ 0</title>    <g id="Details/-0" stroke="none" stroke-width="1" fill="none" fill-rule="evenodd"/>      </g><g id="notion-avatar-beard">            <title>Beard/ 0</title>    <g id="Beard/-0" stroke="none" stroke-width="1" fill="none" fill-rule="evenodd"/>      </g>        </g>        </svg>